# xmcd CD database file
#
# Track frame offsets:
#	150
#	18151
#	37577
#	62626
#	84566
#	106074
#	130292
#	150560
#	171395
#	194608
#	217940
#	239053
#
# Disc length: 3498 seconds
#
# Revision: 0
# Processed by: cddbd v1.5.2PL0 Copyright (c) Steve Scherf et al.
# Submitted via: CDex 1.70beta2
#
DISCID=980da80c
DTITLE=Sonora carruseles - Salsa pa bacanes
DYEAR=2006
DGENRE=Salsa
TTITLE0=El gato boogaloo
TTITLE1=Solo quedé
TTITLE2=Bacan de barrio
TTITLE3=Micaela remix
TTITLE4=Tremendo boogaloo
TTITLE5=Las muchachas
TTITLE6=Piano
TTITLE7=Cuero na ma
TTITLE8=Camelia
TTITLE9=Mi rico boogaloo
TTITLE10=Tiene swing
TTITLE11=Que no pare la rumba
EXTD=YEAR: 2006
EXTT0=
EXTT1=
EXTT2=
EXTT3=
EXTT4=
EXTT5=
EXTT6=
EXTT7=
EXTT8=
EXTT9=
EXTT10=
EXTT11=
PLAYORDER=
